# xmcd
#
# Track frame offsets: 
#        150
#        29342
#        71138
#        105404
#        136672
#        164012
#        185936
#        210331
#        229630
#        250665
#        274633
#
# Disc length: 4116 seconds
#
# Revision: 3
# Processed by: cddbd v1.5.2PL0 Copyright (c) Steve Scherf et al.
# Submitted via: ExactAudioCopy v0.99pb5
#
DISCID=9610120b
DTITLE=Soundscapes Relaxing Music - 09 Oasis
DYEAR=1900
DGENRE=New Age
TTITLE0=Direct 2 Brain - Oasis
TTITLE1=Eclipse - A New Dimension
TTITLE2=U.P.I. - Exodus
TTITLE3=Synopsis - The Silver Garden
TTITLE4=The Sonic Theatre - In The Oasis
TTITLE5=Direct 2 Brain - Watering Place
TTITLE6=U.P.I. - The Cathedral In The Desert
TTITLE7=Soundsphere II - Moments
TTITLE8=Afterlife - Antarctica
TTITLE9=Liquid Glue - Underwater Reserve
TTITLE10=Lens Flare - Desert Nights
EXTD=
EXTT0=
EXTT1=
EXTT2=
EXTT3=
EXTT4=
EXTT5=
EXTT6=
EXTT7=
EXTT8=
EXTT9=
EXTT10=
PLAYORDER=
